<?xml version="1.0" encoding="utf-8"?>
<!-- Generator: Adobe Illustrator 22.1.0, SVG Export Plug-In . SVG Version: 6.00 Build 0)  -->
<svg version="1.0" xmlns="http://www.w3.org/2000/svg" xmlns:xlink="http://www.w3.org/1999/xlink" x="0px" y="0px"
	 viewBox="0 0 320 320" style="enable-background:new 0 0 320 320;" xml:space="preserve">
<style type="text/css">
	.st0{fill:#FFFFFF;stroke:#223F92;stroke-width:1.25;}
	.st1{fill:#1D1D1B;}
</style>
<g id="Calque_1">
	<path class="st0" d="M162.9,174H156c0,0.7,0,1.4,0,2.1v87.3h47.1v-6.9h-40.3V174z"/>
	<polygon class="st0" points="169.8,174 162.9,174 162.9,256.5 210.1,256.5 210.1,249.6 169.8,249.6 	"/>
	<polygon class="st0" points="176.7,174 169.8,174 169.8,249.6 216.9,249.6 216.9,242.8 176.7,242.8 	"/>
	<polygon class="st0" points="183.5,174 176.7,174 176.7,242.8 223.8,242.8 223.8,235.9 183.5,235.9 	"/>
	<polygon class="st0" points="190.4,174 183.5,174 183.5,235.9 230.7,235.9 230.7,229 190.4,229 	"/>
	<g>
		<path class="st0" d="M197.3,134.9c0-6.8-1.1-12.5-4-16.4v33.4h4V134.9z"/>
		<polygon class="st0" points="197.3,174 190.4,174 190.4,229 237.6,229 237.6,222.1 197.3,222.1 		"/>
	</g>
	<g>
		<path class="st0" d="M204.2,151.9V128c0-10.6-2.8-18.8-10.9-21v11.5c2.9,3.9,4,9.6,4,16.4v17H204.2z"/>
		<polygon class="st0" points="204.2,174 197.3,174 197.3,222.1 244.4,222.1 244.4,215.3 204.2,215.3 		"/>
	</g>
	<g>
		<polygon class="st0" points="211,174 204.2,174 204.2,215.3 251.3,215.3 251.3,208.4 211,208.4 		"/>
		<path class="st0" d="M211,151.9v-30.8c0-12.5-3.8-21.6-15.7-21.6c-0.7,0-1.4,0-2.1,0.1v7.4c8.1,2.2,10.9,10.4,10.9,21v23.9H211z"
			/>
	</g>
	<path class="st0" d="M217.9,114.2c0-12.5-3.8-21.6-15.7-21.6c-2.7,0-5.7,0.5-9,1.5v5.5c0.7-0.1,1.4-0.1,2.1-0.1
		c11.9,0,15.7,9.1,15.7,21.6v30.8h4.1V174H211v34.3h47.1v-6.9h-40.3V114.2z"/>
	<path class="st0" d="M224.8,107.4c0-12.5-3.8-21.6-15.7-21.6c-4.5,0-9.9,1.4-15.9,4.1v4.3c3.3-1,6.3-1.5,9-1.5
		c11.9,0,15.7,9.1,15.7,21.6v87.3h47.1v-6.9h-40.3V107.4z"/>
	<path class="st0" d="M231.7,100.5c0-12.5-3.8-21.6-15.7-21.6c-6.1,0-14,2.7-22.7,7.6v3.4c6-2.7,11.4-4.1,15.9-4.1
		c11.9,0,15.7,9.1,15.7,21.6v87.3h47.1v-6.9h-40.3V100.5z"/>
	<path class="st0" d="M245.4,86.7c0-12.5-3.8-21.6-15.7-21.6c-9.2,0-22.2,5.9-36.5,16.8v2c11.6-7.7,21.9-11.9,29.6-11.9
		c11.9,0,15.7,9.1,15.7,21.6v87.3h47.1V174h-40.3V86.7z"/>
	<path class="st0" d="M238.5,93.6c0-12.5-3.8-21.6-15.7-21.6c-7.7,0-18,4.2-29.6,11.9v2.6c8.8-5,16.6-7.6,22.7-7.6
		c11.9,0,15.7,9.1,15.7,21.6v87.3h47.1v-6.9h-40.3V93.6z"/>
	<path class="st0" d="M149.2,183c0-3.2-0.3-6.3-0.9-9h-3.7v-1.5h-4.3v4.8c1.4,3.5,2,7.8,2,12.6v87.3h47.1v-6.9h-40.3V183z"/>
	<path class="st0" d="M156,176.1c0-0.7,0-1.4,0-2.1h-7.7c0.6,2.7,0.9,5.7,0.9,9v87.3h47.1v-6.9H156V176.1z"/>
</g>
<g id="Calque_2">
	<g>
		<g>
			<polygon class="st0" points="64.7,170.7 64.7,248.1 71.6,248.1 71.6,163.8 71.6,121.7 48.6,121.7 48.6,100.3 41.8,100.3 
				41.8,122.4 64.7,122.4 			"/>
			<polygon class="st0" points="71.6,163.8 71.6,241.2 78.5,241.2 78.5,157 78.5,120.7 55.5,120.7 55.5,99.7 48.6,99.7 48.6,121.7 
				71.6,121.7 			"/>
			<polygon class="st0" points="78.5,157 78.5,234.4 85.3,234.4 85.3,150.1 85.3,119.2 62.4,119.2 62.4,98.6 55.5,98.6 55.5,120.7 
				78.5,120.7 			"/>
			<polygon class="st0" points="85.3,150.1 85.3,227.5 92.2,227.5 92.2,143.2 92.2,117.2 69.3,117.2 69.3,97.1 62.4,97.1 
				62.4,119.2 85.3,119.2 			"/>
			<polygon class="st0" points="92.2,143.2 92.2,220.6 99.1,220.6 99.1,136.3 99.1,114.9 76.1,114.9 76.1,95.2 69.3,95.2 
				69.3,117.2 92.2,117.2 			"/>
			<polygon class="st0" points="99.1,136.3 99.1,213.7 106,213.7 106,129.5 106,112.1 83,112.1 83,92.8 76.1,92.8 76.1,114.9 
				99.1,114.9 			"/>
			<polygon class="st0" points="106,129.5 106,206.9 112.8,206.9 112.8,122.6 112.8,108.8 89.9,108.8 89.9,90 83,90 83,112.1 
				106,112.1 			"/>
			<polygon class="st0" points="112.8,122.6 112.8,200 119.7,200 119.7,115.7 119.7,105.2 96.8,105.2 96.8,86.8 89.9,86.8 
				89.9,108.8 112.8,108.8 			"/>
			<polygon class="st0" points="119.7,115.7 119.7,193.1 126.6,193.1 126.6,108.8 126.6,101.1 103.6,101.1 103.6,83.1 96.8,83.1 
				96.8,105.2 119.7,105.2 			"/>
			<polygon class="st0" points="126.6,108.8 126.6,186.2 133.5,186.2 133.5,102 133.5,96.6 110.5,96.6 110.5,79.1 103.6,79.1 
				103.6,101.1 126.6,101.1 			"/>
			<polygon class="st0" points="133.5,102 133.5,179.4 140.3,179.4 140.3,95.1 140.3,91.7 117.4,91.7 117.4,74.5 110.5,74.5 
				110.5,96.6 133.5,96.6 			"/>
			<polygon class="st0" points="161,74.5 161,151.9 167.8,151.9 167.8,67.6 144.9,67.6 144.9,52.2 138,52.2 138,74.3 161,74.3 			
				"/>
			<polygon class="st0" points="154.1,81.3 154.1,151.9 161,151.9 161,74.5 161,74.3 138,74.3 138,58.4 131.1,58.4 131.1,80.5 
				154.1,80.5 			"/>
		</g>
		<polygon class="st0" points="140.3,172.5 144.6,172.5 144.6,151.9 147.2,151.9 147.2,88.2 147.2,86.3 124.3,86.3 124.3,69.6 
			117.4,69.6 117.4,91.7 140.3,91.7 140.3,95.1 		"/>
		<polygon class="st0" points="147.2,88.2 147.2,151.9 154.1,151.9 154.1,81.3 154.1,80.5 131.1,80.5 131.1,64.2 124.3,64.2 
			124.3,86.3 147.2,86.3 		"/>
	</g>
</g>
<g id="Calque_4">
	<g>
		<polygon class="st0" points="48.4,270.3 48.4,255 41.5,255 41.5,277.2 112,277.2 112,270.3 		"/>
		<polygon class="st0" points="55.2,263.4 55.2,248.1 48.4,248.1 48.4,270.3 118.9,270.3 118.9,263.4 		"/>
		<polygon class="st0" points="62.1,256.5 62.1,241.2 55.2,241.2 55.2,263.4 125.8,263.4 125.8,256.5 		"/>
		<polygon class="st0" points="69,249.7 69,234.4 62.1,234.4 62.1,256.5 132.6,256.5 132.6,249.7 		"/>
		<polygon class="st0" points="75.9,242.8 75.9,227.5 69,227.5 69,249.7 139.5,249.7 139.5,242.8 		"/>
		<polygon class="st0" points="82.7,235.9 82.7,220.6 75.9,220.6 75.9,242.8 146.4,242.8 146.4,235.9 		"/>
		<polygon class="st0" points="89.6,229 89.6,213.7 82.7,213.7 82.7,235.9 153.3,235.9 153.3,229 		"/>
		<polygon class="st0" points="96.5,222.2 96.5,206.9 89.6,206.9 89.6,229 160.1,229 160.1,222.2 		"/>
		<polygon class="st0" points="103.4,215.3 103.4,200 96.5,200 96.5,222.2 167,222.2 167,215.3 		"/>
		<polygon class="st0" points="110.2,208.4 110.2,193.1 103.4,193.1 103.4,215.3 173.9,215.3 173.9,208.4 		"/>
		<polygon class="st0" points="117.1,201.5 117.1,186.2 110.2,186.2 110.2,208.4 180.8,208.4 180.8,201.5 		"/>
		<polygon class="st0" points="124,194.7 124,179.4 117.1,179.4 117.1,201.5 187.6,201.5 187.6,194.7 		"/>
		<polygon class="st0" points="130.9,187.8 130.9,172.5 124,172.5 124,194.7 194.5,194.7 194.5,187.8 		"/>
		<polygon class="st0" points="137.7,180.9 137.7,165.6 130.9,165.6 130.9,187.8 201.4,187.8 201.4,180.9 		"/>
		<polygon class="st0" points="144.6,174 144.6,158.7 137.7,158.7 137.7,180.9 208.3,180.9 208.3,174 		"/>
	</g>
</g>
<g id="Calque_3">
</g>
<g id="Calque_5">
	<path class="st0" d="M160.7,191.2c0-6.7-0.8-12.4-2.4-17.2h-13.7v-17.3c-5.4-2.9-11.8-4.2-18.9-4.2c-13.8,0-26.5,5.5-42.4,18.5
		v-70.5H34.9v22h23v55v84.3H34.6V284h70.5v-22.2H83.3v-70c14.3-10.8,27.3-16.8,36.5-16.8c11.9,0,15.7,9.1,15.7,21.6V284h47.1v-22.1
		h-21.9V191.2z"/>
	<text transform="matrix(1 0 0 1 606.1885 389.5907)" class="st1" style="font-family:'PTMono-Regular'; font-size:8px;">1</text>
	<path class="st0" d="M193.3,61.1c15.9-13,28.6-18.5,42.4-18.5c20,0,35,10,35,38.6v70.6h21.9V174h-47.2V86.7
		c0-12.5-3.8-21.6-15.7-21.6c-9.2,0-22.2,5.9-36.5,16.8v70h21.9V174h-70.5v-22.2h23.2V67.6l0,0h-22.9v-22h48.4V61.1z"/>
</g>
</svg>
